<?xml version="1.0" encoding="iso-8859-1"?>
<!-- Generator: Adobe Illustrator 16.0.0, SVG Export Plug-In . SVG Version: 6.00 Build 0)  -->
<!DOCTYPE svg PUBLIC "-//W3C//DTD SVG 1.1//EN" "http://www.w3.org/Graphics/SVG/1.1/DTD/svg11.dtd">
<svg version="1.1" id="Capa_1" xmlns="http://www.w3.org/2000/svg" xmlns:xlink="http://www.w3.org/1999/xlink" x="0px" y="0px"
	 width="31.711px" height="31.711px" viewBox="0 0 31.711 31.711" style="enable-background:new 0 0 31.711 31.711;"
	 xml:space="preserve">
<g>
	<g>
		<polygon points="25.801,23.261 20.131,27.742 23.273,31.711 24.767,27.777 28.941,27.232 		"/>
		<polygon points="10.161,25.05 14.095,26.545 14.64,30.718 18.611,27.578 14.131,21.909 		"/>
		<path d="M20.131,18.741c-1.758,0-3.19,1.431-3.19,3.188c0,1.76,1.433,3.19,3.19,3.19c1.759,0,3.19-1.431,3.19-3.19
			C23.323,20.172,21.891,18.741,20.131,18.741z M21.651,23.973l-1.52-0.801l-1.52,0.801l0.29-1.69l-1.229-1.199l1.699-0.246
			l0.76-1.539l0.76,1.539l1.699,0.246l-1.229,1.199L21.651,23.973z"/>
		<path d="M24.006,21.911c0-2.144-1.735-3.877-3.877-3.877c-2.139,0-3.875,1.733-3.875,3.877c0,2.14,1.737,3.873,3.875,3.873
			C22.27,25.784,24.006,24.051,24.006,21.911z M20.131,25.336c-1.877,0-3.405-1.527-3.405-3.404c0-1.879,1.528-3.406,3.405-3.406
			c1.879,0,3.404,1.527,3.404,3.406C23.536,23.809,22.01,25.336,20.131,25.336z"/>
	</g>
	<polygon points="21.228,0 21.022,0.02 21.004,0 2.77,0 2.77,28.131 13.412,28.131 13.121,26.868 4.033,26.868 4.033,1.263 
		20.155,1.263 20.155,6.288 25.097,6.288 25.097,21.52 26.36,22.535 26.36,7.569 26.36,5.355 26.36,5.133 	"/>
	<g>
		<path d="M5.143,9.306H6.61v4.76H5.143V9.306z"/>
		<path d="M10.363,11.079c-0.009-0.045-0.024-0.105-0.047-0.184c-0.022-0.077-0.062-0.154-0.12-0.229
			c-0.058-0.076-0.135-0.143-0.23-0.2c-0.096-0.058-0.219-0.087-0.37-0.087c-0.173,0-0.318,0.038-0.434,0.113
			c-0.115,0.076-0.208,0.176-0.276,0.3c-0.069,0.125-0.119,0.265-0.15,0.42c-0.031,0.156-0.047,0.313-0.047,0.474
			s0.016,0.317,0.047,0.474c0.031,0.155,0.081,0.295,0.15,0.42c0.069,0.124,0.161,0.225,0.276,0.3
			c0.116,0.075,0.26,0.113,0.434,0.113c0.125,0,0.23-0.021,0.316-0.06c0.087-0.04,0.16-0.096,0.22-0.167
			c0.06-0.071,0.109-0.155,0.146-0.254c0.038-0.098,0.068-0.202,0.09-0.313h1.439c0,0.239-0.047,0.478-0.143,0.713
			c-0.096,0.235-0.236,0.448-0.42,0.637c-0.185,0.188-0.412,0.341-0.684,0.457c-0.271,0.115-0.58,0.173-0.926,0.173
			c-0.387,0-0.729-0.064-1.027-0.193c-0.298-0.129-0.55-0.305-0.756-0.526c-0.207-0.223-0.363-0.485-0.47-0.79
			c-0.106-0.305-0.16-0.632-0.16-0.983c0-0.373,0.057-0.713,0.17-1.02c0.113-0.307,0.275-0.569,0.486-0.787
			c0.211-0.218,0.464-0.387,0.76-0.507c0.295-0.12,0.627-0.18,0.997-0.18c0.658,0.005,1.166,0.17,1.523,0.497
			c0.358,0.326,0.568,0.789,0.63,1.39L10.363,11.079L10.363,11.079z"/>
		<path d="M12.422,9.306h1.467v3.54h2.106v1.22h-3.573V9.306z"/>
		<path d="M16.875,10.525h-1.333v-1.22h4.132v1.22h-1.332v3.54h-1.467V10.525z"/>
		<path d="M21.381,12.466c0,0.115,0.019,0.22,0.055,0.313c0.053,0.142,0.148,0.235,0.287,0.279c0.138,0.045,0.275,0.066,0.413,0.066
			c0.058,0,0.122-0.005,0.192-0.017c0.071-0.011,0.139-0.033,0.2-0.066s0.113-0.077,0.153-0.133c0.04-0.056,0.061-0.128,0.061-0.217
			c0-0.063-0.017-0.114-0.048-0.157c-0.03-0.042-0.084-0.082-0.159-0.12c-0.076-0.037-0.181-0.077-0.313-0.119
			c-0.134-0.043-0.302-0.093-0.507-0.15c-0.188-0.054-0.377-0.11-0.57-0.17s-0.367-0.14-0.52-0.24
			c-0.153-0.1-0.279-0.227-0.377-0.38c-0.099-0.153-0.146-0.35-0.146-0.59c0-0.275,0.055-0.512,0.164-0.71
			c0.109-0.197,0.252-0.361,0.43-0.49s0.383-0.223,0.613-0.283c0.23-0.06,0.469-0.09,0.713-0.09c0.258,0,0.504,0.026,0.74,0.08
			c0.234,0.053,0.443,0.141,0.626,0.264c0.182,0.122,0.329,0.282,0.44,0.479c0.11,0.198,0.17,0.441,0.18,0.729h-1.387
			c0.012-0.088,0.002-0.164-0.031-0.227c-0.032-0.062-0.08-0.113-0.143-0.153c-0.062-0.044-0.131-0.075-0.207-0.093
			s-0.15-0.026-0.227-0.026c-0.049,0-0.104,0.004-0.167,0.013c-0.063,0.009-0.12,0.024-0.173,0.047s-0.098,0.055-0.133,0.097
			s-0.054,0.097-0.054,0.163c0.005,0.085,0.048,0.154,0.13,0.21s0.188,0.104,0.317,0.146c0.128,0.043,0.274,0.083,0.437,0.12
			c0.162,0.038,0.328,0.079,0.498,0.124c0.168,0.049,0.332,0.106,0.492,0.173c0.16,0.066,0.303,0.152,0.43,0.257
			s0.229,0.233,0.304,0.387s0.112,0.339,0.112,0.557c0,0.311-0.063,0.571-0.192,0.779c-0.129,0.209-0.298,0.377-0.507,0.504
			c-0.209,0.127-0.444,0.218-0.706,0.272c-0.263,0.055-0.526,0.083-0.794,0.083c-0.088,0-0.202-0.007-0.34-0.02
			c-0.137-0.014-0.283-0.043-0.439-0.087c-0.154-0.045-0.311-0.104-0.466-0.18c-0.156-0.076-0.296-0.178-0.42-0.307
			c-0.125-0.129-0.228-0.285-0.308-0.467c-0.08-0.183-0.119-0.4-0.119-0.653h1.465V12.466z"/>
	</g>
	<rect x="5.776" y="17.102" width="8.769" height="1.191"/>
	<rect x="5.776" y="19.416" width="8.769" height="1.191"/>
</g>
<g>
</g>
<g>
</g>
<g>
</g>
<g>
</g>
<g>
</g>
<g>
</g>
<g>
</g>
<g>
</g>
<g>
</g>
<g>
</g>
<g>
</g>
<g>
</g>
<g>
</g>
<g>
</g>
<g>
</g>
</svg>
